<svg id="plot-map-svg" viewBox="0 0 1920 1180.58" width="100%" fill="none" xmlns="http://www.w3.org/2000/svg">
<mask id="mask0_1_2" style="mask-type:luminance" maskUnits="userSpaceOnUse" x="0" y="0" width="1920" height="1181">
<path d="M1920 0H0V1180.58H1920V0Z" fill="white"/>
</mask>
<g mask="url(#mask0_1_2)">
<path d="M682.64 82.36L682.26 86.19L674.68 78.83L676.91 76.8L682.64 82.36Z" fill="#38813B"/>
<path d="M699.98 87.36L699.69 90.35L691.43 89.47L691.73 86.47L699.98 87.36Z" fill="#38813B"/>
<path d="M717.63 89.24L717.33 92.24L709.08 91.35L709.37 88.36L717.63 89.24Z" fill="#38813B"/>
<path d="M735.28 91.13L734.99 94.12L726.72 93.24L727.02 90.25L735.28 91.13Z" fill="#38813B"/>
<path d="M752.93 93.02L752.63 96.01L744.38 95.13L744.67 92.14L752.93 93.02Z" fill="#38813B"/>
<path d="M770.62 94.91L770.33 97.9L762.02 97.02L762.32 94.02L770.62 94.91Z" fill="#38813B"/>
<path d="M789.21 96.9L788.91 99.89L779.72 98.91L780.02 95.92L789.21 96.9Z" fill="#38813B"/>
<path d="M798.6 97.9L806.86 98.79L806.57 101.78L798.31 100.9L798.6 97.9Z" fill="#38813B"/>
<path d="M816.26 99.79L824.51 100.67L824.21 103.67L815.96 102.78L816.26 99.79Z" fill="#38813B"/>
<path d="M833.9 101.68L842.15 102.56L841.86 105.55L833.61 104.67L833.9 101.68Z" fill="#38813B"/>
<path d="M851.55 103.57L859.81 104.45L859.52 107.44L851.25 106.56L851.55 103.57Z" fill="#38813B"/>
<path d="M869.2 105.45L877.46 106.34L877.16 109.33L868.91 108.45L869.2 105.45Z" fill="#38813B"/>
<path d="M886.85 107.34L894.62 108.17L894.32 111.17L886.55 110.33L886.85 107.34Z" fill="#38813B"/>
<path d="M904.01 109.18L913.2 110.16L912.91 113.15L903.72 112.17L904.01 109.18Z" fill="#38813B"/>
<path d="M922.6 111.16L930.86 112.05L930.56 115.04L922.3 114.16L922.6 111.16Z" fill="#38813B"/>
<path d="M940.25 113.05L948.5 113.94L948.21 116.93L939.95 116.05L940.25 113.05Z" fill="#38813B"/>
<path d="M957.9 114.94L966.15 115.82L965.86 118.82L957.6 117.93L957.9 114.94Z" fill="#38813B"/>
<path d="M975.21 116.79L983.8 117.71L983.51 120.7L974.92 119.79L975.21 116.79Z" fill="#38813B"/>
<path d="M993.2 118.72L1001.45 119.6L1001.16 122.59L992.9 121.71L993.2 118.72Z" fill="#38813B"/>
<path d="M1019.67 124.57L1010.55 123.6L1010.84 120.6L1017.19 121.28L1019.67 124.57Z" fill="#38813B"/>
<path d="M1020.26 121.61L1019.94 124.59V124.6L1019.86 124.59L1019.79 124.58L1019.67 124.57L1017.19 121.28L1020.26 121.61Z" fill="#38813B"/>
<path d="M1333.82 972.84V941.584H1344.9C1356 941.584 1361.55 946.662 1361.55 956.819C1361.55 961.687 1360.03 965.574 1356.99 968.481C1353.97 971.387 1349.94 972.84 1344.9 972.84H1333.82ZM1340.86 947.316V967.129H1344.35C1347.4 967.129 1349.79 966.214 1351.52 964.383C1353.27 962.552 1354.14 960.06 1354.14 956.907C1354.14 953.928 1353.27 951.588 1351.55 949.888C1349.83 948.173 1347.42 947.316 1344.31 947.316H1340.86ZM1379.95 973.385C1375.47 973.385 1371.82 971.932 1369 969.026C1366.19 966.105 1364.78 962.305 1364.78 957.626C1364.78 952.685 1366.21 948.689 1369.07 945.638C1371.93 942.586 1375.73 941.06 1380.45 941.06C1384.91 941.06 1388.51 942.521 1391.26 945.442C1394.02 948.362 1395.4 952.213 1395.4 956.994C1395.4 961.905 1393.97 965.865 1391.11 968.873C1388.26 971.881 1384.54 973.385 1379.95 973.385ZM1380.25 947.12C1377.78 947.12 1375.82 948.05 1374.37 949.91C1372.91 951.755 1372.19 954.204 1372.19 957.255C1372.19 960.351 1372.91 962.799 1374.37 964.601C1375.82 966.403 1377.72 967.304 1380.08 967.304C1382.5 967.304 1384.43 966.432 1385.85 964.688C1387.28 962.93 1387.99 960.496 1387.99 957.386C1387.99 954.146 1387.3 951.625 1385.92 949.823C1384.54 948.021 1382.65 947.12 1380.25 947.12ZM1399.17 971.641V964.666C1400.44 965.727 1401.81 966.526 1403.29 967.064C1404.77 967.587 1406.27 967.849 1407.78 967.849C1408.67 967.849 1409.44 967.769 1410.09 967.609C1410.76 967.449 1411.31 967.231 1411.75 966.955C1412.2 966.664 1412.53 966.33 1412.75 965.952C1412.97 965.56 1413.08 965.139 1413.08 964.688C1413.08 964.078 1412.9 963.533 1412.55 963.053C1412.21 962.574 1411.73 962.131 1411.12 961.724C1410.52 961.317 1409.81 960.925 1408.98 960.547C1408.15 960.169 1407.26 959.784 1406.3 959.391C1403.86 958.374 1402.03 957.132 1400.83 955.664C1399.64 954.197 1399.04 952.424 1399.04 950.346C1399.04 948.718 1399.37 947.323 1400.02 946.161C1400.68 944.984 1401.56 944.018 1402.68 943.262C1403.81 942.506 1405.12 941.954 1406.6 941.605C1408.09 941.242 1409.66 941.06 1411.31 941.06C1412.94 941.06 1414.38 941.162 1415.63 941.366C1416.89 941.555 1418.05 941.852 1419.12 942.259V948.776C1418.59 948.413 1418.02 948.094 1417.39 947.817C1416.78 947.541 1416.15 947.316 1415.5 947.142C1414.84 946.953 1414.19 946.815 1413.54 946.728C1412.9 946.64 1412.29 946.597 1411.7 946.597C1410.9 946.597 1410.18 946.677 1409.52 946.837C1408.87 946.982 1408.32 947.193 1407.87 947.469C1407.42 947.745 1407.07 948.079 1406.82 948.471C1406.57 948.849 1406.45 949.278 1406.45 949.757C1406.45 950.28 1406.59 950.753 1406.87 951.174C1407.14 951.581 1407.53 951.973 1408.04 952.351C1408.55 952.714 1409.17 953.078 1409.9 953.441C1410.62 953.79 1411.44 954.153 1412.36 954.531C1413.61 955.054 1414.73 955.613 1415.71 956.209C1416.72 956.79 1417.57 957.452 1418.29 958.193C1419 958.934 1419.54 959.784 1419.92 960.743C1420.3 961.687 1420.49 962.792 1420.49 964.056C1420.49 965.8 1420.15 967.267 1419.49 968.459C1418.83 969.636 1417.94 970.595 1416.8 971.336C1415.67 972.063 1414.35 972.586 1412.84 972.905C1411.34 973.225 1409.76 973.385 1408.09 973.385C1406.37 973.385 1404.74 973.24 1403.18 972.949C1401.64 972.658 1400.3 972.222 1399.17 971.641ZM1447.58 947.316H1438.67V972.84H1431.6V947.316H1422.73V941.584H1447.58V947.316ZM1470.53 972.84H1451.79V941.584H1469.81V947.316H1458.83V954.269H1469.05V959.98H1458.83V967.129H1470.53V972.84ZM1468.27 981.559C1467.92 981.675 1467.5 981.769 1467 981.842C1466.52 981.929 1466.03 981.973 1465.52 981.973C1464.29 981.973 1463.3 981.646 1462.56 980.992C1461.81 980.353 1461.44 979.415 1461.44 978.18C1461.44 977.73 1461.52 977.257 1461.68 976.763C1461.84 976.284 1462.08 975.804 1462.38 975.325C1462.69 974.86 1463.06 974.417 1463.51 973.995C1463.97 973.574 1464.48 973.189 1465.06 972.84H1468.44C1467.31 973.668 1466.46 974.475 1465.91 975.259C1465.37 976.059 1465.11 976.763 1465.11 977.374C1465.11 977.853 1465.23 978.209 1465.48 978.442C1465.72 978.689 1466.06 978.812 1466.48 978.812C1466.76 978.812 1467.05 978.791 1467.35 978.747C1467.66 978.703 1467.95 978.638 1468.24 978.551L1468.27 981.559ZM1482.59 962.072V972.84H1475.55V941.584H1486.58C1494.45 941.584 1498.39 944.904 1498.39 951.545C1498.39 954.683 1497.26 957.226 1494.99 959.174C1492.74 961.106 1489.72 962.072 1485.94 962.072H1482.59ZM1482.59 946.989V956.732H1485.36C1489.1 956.732 1490.98 955.09 1490.98 951.806C1490.98 948.595 1489.1 946.989 1485.36 946.989H1482.59ZM1531.08 972.84H1523.98L1511.1 953.201C1510.34 952.053 1509.82 951.189 1509.53 950.607H1509.44C1509.56 951.712 1509.61 953.397 1509.61 955.664V972.84H1502.97V941.584H1510.55L1522.95 960.612C1523.52 961.469 1524.04 962.319 1524.52 963.162H1524.61C1524.49 962.436 1524.44 961.004 1524.44 958.868V941.584H1531.08V972.84ZM1551.44 973.385C1546.97 973.385 1543.32 971.932 1540.5 969.026C1537.68 966.105 1536.27 962.305 1536.27 957.626C1536.27 952.685 1537.7 948.689 1540.57 945.638C1543.43 942.586 1547.22 941.06 1551.94 941.06C1556.41 941.06 1560.01 942.521 1562.76 945.442C1565.52 948.362 1566.9 952.213 1566.9 956.994C1566.9 961.905 1565.47 965.865 1562.6 968.873C1559.75 971.881 1556.03 973.385 1551.44 973.385ZM1551.75 947.12C1549.28 947.12 1547.32 948.05 1545.86 949.91C1544.41 951.755 1543.68 954.204 1543.68 957.255C1543.68 960.351 1544.41 962.799 1545.86 964.601C1547.32 966.403 1549.22 967.304 1551.57 967.304C1554 967.304 1555.93 966.432 1557.35 964.688C1558.77 962.93 1559.49 960.496 1559.49 957.386C1559.49 954.146 1558.8 951.625 1557.41 949.823C1556.03 948.021 1554.15 947.12 1551.75 947.12ZM1570.67 971.641V964.666C1571.93 965.727 1573.3 966.526 1574.79 967.064C1576.27 967.587 1577.77 967.849 1579.28 967.849C1580.16 967.849 1580.93 967.769 1581.59 967.609C1582.26 967.449 1582.81 967.231 1583.24 966.955C1583.69 966.664 1584.03 966.33 1584.25 965.952C1584.46 965.56 1584.57 965.139 1584.57 964.688C1584.57 964.078 1584.4 963.533 1584.05 963.053C1583.7 962.574 1583.22 962.131 1582.61 961.724C1582.02 961.317 1581.3 960.925 1580.48 960.547C1579.65 960.169 1578.75 959.784 1577.79 959.391C1575.35 958.374 1573.53 957.132 1572.32 955.664C1571.13 954.197 1570.54 952.424 1570.54 950.346C1570.54 948.718 1570.86 947.323 1571.52 946.161C1572.17 944.984 1573.06 944.018 1574.18 943.262C1575.31 942.506 1576.62 941.954 1578.1 941.605C1579.58 941.242 1581.15 941.06 1582.81 941.06C1584.44 941.06 1585.87 941.162 1587.12 941.366C1588.39 941.555 1589.55 941.852 1590.61 942.259V948.776C1590.09 948.413 1589.51 948.094 1588.89 947.817C1588.28 947.541 1587.65 947.316 1586.99 947.142C1586.34 946.953 1585.69 946.815 1585.03 946.728C1584.39 946.64 1583.78 946.597 1583.2 946.597C1582.4 946.597 1581.67 946.677 1581.02 946.837C1580.37 946.982 1579.81 947.193 1579.36 947.469C1578.91 947.745 1578.57 948.079 1578.32 948.471C1578.07 948.849 1577.95 949.278 1577.95 949.757C1577.95 950.28 1578.09 950.753 1578.36 951.174C1578.64 951.581 1579.03 951.973 1579.54 952.351C1580.05 952.714 1580.66 953.078 1581.39 953.441C1582.12 953.79 1582.94 954.153 1583.85 954.531C1585.1 955.054 1586.22 955.613 1587.21 956.209C1588.21 956.79 1589.07 957.452 1589.78 958.193C1590.5 958.934 1591.04 959.784 1591.42 960.743C1591.8 961.687 1591.98 962.792 1591.98 964.056C1591.98 965.8 1591.65 967.267 1590.98 968.459C1590.33 969.636 1589.43 970.595 1588.3 971.336C1587.17 972.063 1585.85 972.586 1584.33 972.905C1582.84 973.225 1581.25 973.385 1579.58 973.385C1577.87 973.385 1576.23 973.24 1574.68 972.949C1573.14 972.658 1571.8 972.222 1570.67 971.641ZM1587.69 931.644L1580.87 938.685H1575.9L1581.57 931.644H1587.69ZM1619.54 971.728C1617.25 972.833 1614.28 973.385 1610.6 973.385C1605.8 973.385 1602.03 971.975 1599.29 969.156C1596.54 966.337 1595.17 962.581 1595.17 957.888C1595.17 952.889 1596.71 948.835 1599.79 945.725C1602.88 942.615 1606.89 941.06 1611.82 941.06C1614.87 941.06 1617.44 941.446 1619.54 942.216V948.994C1617.44 947.745 1615.06 947.12 1612.39 947.12C1609.45 947.12 1607.08 948.043 1605.28 949.888C1603.48 951.734 1602.58 954.233 1602.58 957.386C1602.58 960.409 1603.43 962.821 1605.13 964.623C1606.83 966.41 1609.12 967.304 1611.99 967.304C1614.74 967.304 1617.25 966.635 1619.54 965.298V971.728ZM1618.82 931.644L1611.99 938.685H1607.02L1612.69 931.644H1618.82Z" fill="#94D231"/>
<path d="M583.685 173.917L581.128 174.65L644.155 394.452L646.712 393.719L583.685 173.917Z" fill="#38813B"/>
<path d="M382.812 177.504L380.343 178.492L445.646 341.68L448.116 340.692L382.812 177.504Z" fill="#38813B"/>
<path d="M640.61 1112.57L631.2 1081.99L612.43 1049.72L552.89 978.39L456.4 894.34L424.88 810.49V505.44L414.27 415.22L388.32 325L378.9 302.62L381.35 301.59L390.86 324.19L416.88 414.7L416.9 414.81L427.54 505.29V810.01L458.65 892.78L554.8 976.53L554.86 976.61L614.61 1048.19L614.67 1048.29L633.66 1080.92L643.15 1111.79L640.61 1112.57Z" fill="#38813B"/>
<path d="M605.14 1112.5L599.27 1089.01L585.81 1062.09L524.49 987.22L444.67 907.99L444.59 907.87L401.34 840.33L401.29 840.12L392.39 805.12V804.96C392.34 801.66 387.18 474.56 378.83 436.53L381.43 435.96C389.8 474.12 394.81 789.19 395.05 804.76L403.82 839.27L446.76 906.32L526.47 985.42V985.47L588.01 1060.63L588.08 1060.76L601.74 1088.07V1088.21L607.65 1111.85L605.14 1112.5Z" fill="#38813B"/>
<path d="M386.555 537.779L366.838 546.096L367.871 548.547L387.589 540.23L386.555 537.779Z" fill="#38813B"/>
<path d="M370.526 795.389L369.647 797.9L393.281 806.172L394.16 803.661L370.526 795.389Z" fill="#38813B"/>
<path d="M361.065 836.712L360.952 839.37L402.514 841.141L402.627 838.483L361.065 836.712Z" fill="#38813B"/>
<path d="M653.139 987.877L650.598 988.665L688.711 1111.56L691.252 1110.77L653.139 987.877Z" fill="#38813B"/>
<path d="M896.1 1113.29L894.64 1111.07L1119.52 963.93L1130.42 1065.62L1117.05 1112.54L1114.49 1111.82L1127.72 1065.38L1117.34 968.54L896.1 1113.29Z" fill="#38813B"/>
<path d="M1128.5 1064.28L1029.23 1110.97L1030.36 1113.38L1129.63 1066.69L1128.5 1064.28Z" fill="#38813B"/>
<path d="M1281.35 226.39L1279.34 228.13L1278.08 226.66L1195.22 130.49L1019.94 124.59H1019.86L1019.79 124.58H1019.68L1019.67 124.57L1017.19 121.28L972.02 61.44L974.15 59.84L1021.04 121.96L1196.48 127.87L1281.32 226.36L1281.35 226.39Z" fill="#38813B"/>
<path d="M1034.31 970.42L653.53 989.13L650.79 989.26H650.45C650.45 989.26 636.3 974.54 617.05 954.39L694.73 919.39L686.8 802.16L713.55 797.8L721.55 948.46L954.55 935.07L955.34 935.02L978.34 902.69L882.9 589.25L914.13 580.2L1034.31 970.42Z" fill="#D8D8D8"/>
<path d="M1351.64 1015.97L1347.11 1032.03H1344.9L1341.6 1020.29C1341.46 1019.79 1341.37 1019.25 1341.34 1018.66H1341.3C1341.25 1019.21 1341.15 1019.75 1341 1020.27L1337.68 1032.03H1335.49L1330.79 1015.97H1332.86L1336.28 1028.29C1336.42 1028.8 1336.51 1029.34 1336.55 1029.9H1336.6C1336.64 1029.51 1336.76 1028.97 1336.95 1028.29L1340.5 1015.97H1342.3L1345.71 1028.38C1345.83 1028.8 1345.92 1029.31 1345.98 1029.88H1346.02C1346.05 1029.49 1346.15 1028.98 1346.32 1028.33L1349.6 1015.97H1351.64ZM1360.51 1032.3C1358.23 1032.3 1356.41 1031.55 1355.04 1030.05C1353.67 1028.55 1352.99 1026.6 1352.99 1024.19C1352.99 1021.61 1353.68 1019.55 1355.08 1018.01C1356.48 1016.47 1358.38 1015.7 1360.78 1015.7C1363 1015.7 1364.78 1016.45 1366.13 1017.94C1367.49 1019.44 1368.17 1021.39 1368.17 1023.8C1368.17 1026.42 1367.48 1028.49 1366.09 1030.01C1364.7 1031.54 1362.84 1032.3 1360.51 1032.3ZM1360.65 1017.41C1358.96 1017.41 1357.59 1018.01 1356.54 1019.23C1355.48 1020.45 1354.96 1022.05 1354.96 1024.02C1354.96 1026 1355.47 1027.6 1356.49 1028.8C1357.52 1030.01 1358.86 1030.61 1360.51 1030.61C1362.27 1030.61 1363.66 1030.03 1364.68 1028.88C1365.69 1027.73 1366.2 1026.12 1366.2 1024.06C1366.2 1021.94 1365.71 1020.3 1364.72 1019.14C1363.74 1017.98 1362.38 1017.41 1360.65 1017.41ZM1379.66 1032.03H1371.33V1015.97H1373.21V1030.33H1379.66V1032.03ZM1395.07 1032.03H1392.76L1384.5 1019.23C1384.29 1018.91 1384.12 1018.57 1383.98 1018.22H1383.92C1383.97 1018.57 1384 1019.3 1384 1020.43V1032.03H1382.12V1015.97H1384.56L1392.6 1028.57C1392.94 1029.09 1393.16 1029.45 1393.25 1029.64H1393.3C1393.22 1029.18 1393.19 1028.39 1393.19 1027.28V1015.97H1395.07V1032.03ZM1411.71 1032.03H1409.63L1407.92 1027.53H1401.12L1399.51 1032.03H1397.42L1403.58 1015.97H1405.53L1411.71 1032.03ZM1407.31 1025.84L1404.79 1019C1404.71 1018.77 1404.62 1018.41 1404.54 1017.92H1404.5C1404.42 1018.38 1404.34 1018.73 1404.24 1019L1401.74 1025.84H1407.31Z" fill="#11330B"/>
<path d="M1344.12 1073.15H1341.88L1339.19 1068.65C1338.94 1068.23 1338.7 1067.88 1338.47 1067.58C1338.24 1067.29 1338 1067.04 1337.76 1066.86C1337.52 1066.67 1337.26 1066.54 1336.97 1066.45C1336.7 1066.36 1336.38 1066.32 1336.03 1066.32H1334.49V1073.15H1332.61V1057.09H1337.4C1338.1 1057.09 1338.75 1057.18 1339.34 1057.36C1339.93 1057.53 1340.45 1057.8 1340.88 1058.16C1341.32 1058.51 1341.66 1058.96 1341.91 1059.5C1342.16 1060.03 1342.28 1060.65 1342.28 1061.37C1342.28 1061.93 1342.19 1062.44 1342.02 1062.91C1341.86 1063.38 1341.62 1063.79 1341.31 1064.16C1341 1064.52 1340.63 1064.84 1340.19 1065.1C1339.75 1065.35 1339.26 1065.55 1338.72 1065.69V1065.74C1338.99 1065.86 1339.22 1065.99 1339.41 1066.15C1339.62 1066.3 1339.81 1066.48 1339.98 1066.69C1340.16 1066.9 1340.34 1067.14 1340.51 1067.41C1340.69 1067.67 1340.89 1067.97 1341.1 1068.32L1344.12 1073.15ZM1334.49 1058.79V1064.62H1337.04C1337.51 1064.62 1337.94 1064.55 1338.34 1064.4C1338.74 1064.26 1339.09 1064.06 1339.38 1063.8C1339.67 1063.53 1339.9 1063.21 1340.06 1062.83C1340.23 1062.44 1340.31 1062 1340.31 1061.53C1340.31 1060.67 1340.03 1060 1339.47 1059.52C1338.92 1059.04 1338.11 1058.79 1337.06 1058.79H1334.49ZM1354.84 1073.15H1346.33V1057.09H1354.49V1058.79H1348.22V1064.14H1354.02V1065.83H1348.22V1071.45H1354.84V1073.15ZM1368.42 1057.54L1359.01 1071.45H1368.19V1073.15H1356.2V1072.62L1365.53 1058.79H1356.95V1057.09H1368.42V1057.54ZM1379.53 1073.15H1371.01V1057.09H1379.17V1058.79H1372.9V1064.14H1378.7V1065.83H1372.9V1071.45H1379.53V1073.15ZM1394.13 1073.15H1391.89L1389.2 1068.65C1388.95 1068.23 1388.72 1067.88 1388.48 1067.58C1388.25 1067.29 1388.01 1067.04 1387.77 1066.86C1387.53 1066.67 1387.27 1066.54 1386.98 1066.45C1386.71 1066.36 1386.39 1066.32 1386.04 1066.32H1384.5V1073.15H1382.62V1057.09H1387.41C1388.11 1057.09 1388.76 1057.18 1389.35 1057.36C1389.94 1057.53 1390.46 1057.8 1390.89 1058.16C1391.33 1058.51 1391.68 1058.96 1391.92 1059.5C1392.17 1060.03 1392.29 1060.65 1392.29 1061.37C1392.29 1061.93 1392.21 1062.44 1392.03 1062.91C1391.87 1063.38 1391.63 1063.79 1391.32 1064.16C1391.01 1064.52 1390.64 1064.84 1390.2 1065.1C1389.76 1065.35 1389.28 1065.55 1388.73 1065.69V1065.74C1389 1065.86 1389.23 1065.99 1389.42 1066.15C1389.63 1066.3 1389.82 1066.48 1390 1066.69C1390.17 1066.9 1390.35 1067.14 1390.52 1067.41C1390.7 1067.67 1390.9 1067.97 1391.12 1068.32L1394.13 1073.15ZM1384.5 1058.79V1064.62H1387.05C1387.52 1064.62 1387.95 1064.55 1388.35 1064.4C1388.75 1064.26 1389.1 1064.06 1389.39 1063.8C1389.68 1063.53 1389.91 1063.21 1390.07 1062.83C1390.24 1062.44 1390.32 1062 1390.32 1061.53C1390.32 1060.67 1390.04 1060 1389.48 1059.52C1388.93 1059.04 1388.13 1058.79 1387.07 1058.79H1384.5ZM1415.38 1057.09L1410.85 1073.15H1408.64L1405.34 1061.41C1405.2 1060.91 1405.11 1060.37 1405.08 1059.78H1405.03C1404.99 1060.33 1404.89 1060.87 1404.74 1061.39L1401.42 1073.15H1399.23L1394.53 1057.09H1396.6L1400.02 1069.41C1400.16 1069.92 1400.25 1070.46 1400.29 1071.02H1400.34C1400.38 1070.63 1400.5 1070.09 1400.69 1069.41L1404.24 1057.09H1406.04L1409.45 1069.5C1409.57 1069.92 1409.66 1070.43 1409.72 1071H1409.76C1409.79 1070.61 1409.89 1070.1 1410.06 1069.45L1413.34 1057.09H1415.38ZM1430.21 1073.15H1428.13L1426.42 1068.65H1419.61L1418.01 1073.15H1415.92L1422.08 1057.09H1424.03L1430.21 1073.15ZM1425.81 1066.96L1423.29 1060.12C1423.21 1059.89 1423.12 1059.53 1423.04 1059.04H1423C1422.92 1059.5 1422.84 1059.85 1422.74 1060.12L1420.24 1066.96H1425.81ZM1443.51 1072.48C1442.32 1073.11 1440.85 1073.42 1439.08 1073.42C1436.79 1073.42 1434.96 1072.68 1433.59 1071.21C1432.22 1069.74 1431.53 1067.81 1431.53 1065.42C1431.53 1062.86 1432.3 1060.78 1433.85 1059.2C1435.39 1057.61 1437.35 1056.82 1439.73 1056.82C1441.25 1056.82 1442.51 1057.04 1443.51 1057.48V1059.49C1442.36 1058.85 1441.09 1058.53 1439.7 1058.53C1437.86 1058.53 1436.36 1059.14 1435.21 1060.37C1434.07 1061.6 1433.5 1063.25 1433.5 1065.31C1433.5 1067.27 1434.03 1068.83 1435.1 1069.99C1436.18 1071.15 1437.58 1071.73 1439.32 1071.73C1440.94 1071.73 1442.33 1071.37 1443.51 1070.65V1072.48ZM1450.89 1067.39C1450.89 1069.3 1450.49 1070.78 1449.68 1071.84C1448.88 1072.89 1447.8 1073.42 1446.45 1073.42C1445.82 1073.42 1445.3 1073.33 1444.9 1073.15V1071.29C1445.3 1071.58 1445.83 1071.73 1446.47 1071.73C1448.16 1071.73 1449.01 1070.29 1449.01 1067.42V1057.09H1450.89V1067.39ZM1467.41 1073.15H1465.33L1463.62 1068.65H1456.82L1455.21 1073.15H1453.12L1459.28 1057.09H1461.23L1467.41 1073.15ZM1463.01 1066.96L1460.49 1060.12C1460.41 1059.89 1460.32 1059.53 1460.24 1059.04H1460.2C1460.12 1059.5 1460.04 1059.85 1459.94 1060.12L1457.44 1066.96H1463.01Z" fill="#11330B"/>
<path d="M1345.55 1114.27H1343.24L1334.98 1101.47C1334.77 1101.15 1334.6 1100.81 1334.46 1100.46H1334.4C1334.46 1100.81 1334.49 1101.54 1334.49 1102.67V1114.27H1332.61V1098.21H1335.05L1343.09 1110.81C1343.42 1111.33 1343.64 1111.69 1343.74 1111.88H1343.78C1343.71 1111.42 1343.67 1110.63 1343.67 1109.52V1098.21H1345.55V1114.27ZM1353.21 1098.21V1099.82H1351.64V1112.66H1353.21V1114.27H1348.19V1112.66H1349.76V1099.82H1348.19V1098.21H1353.21ZM1364.39 1114.27H1355.88V1098.21H1364.03V1099.91H1357.76V1105.26H1363.56V1106.95H1357.76V1112.57H1364.39V1114.27ZM1367.48 1114.27V1098.21H1371.91C1377.57 1098.21 1380.4 1100.82 1380.4 1106.04C1380.4 1108.52 1379.61 1110.51 1378.04 1112.02C1376.47 1113.52 1374.37 1114.27 1371.73 1114.27H1367.48ZM1369.36 1099.91V1112.57H1371.75C1373.86 1112.57 1375.5 1112 1376.67 1110.88C1377.84 1109.75 1378.43 1108.15 1378.43 1106.08C1378.43 1101.97 1376.24 1099.91 1371.87 1099.91H1369.36ZM1390.03 1114.54C1387.75 1114.54 1385.93 1113.79 1384.55 1112.29C1383.19 1110.79 1382.5 1108.84 1382.5 1106.43C1382.5 1103.85 1383.2 1101.79 1384.6 1100.25C1385.99 1098.71 1387.89 1097.94 1390.3 1097.94C1392.52 1097.94 1394.3 1098.69 1395.65 1100.18C1397.01 1101.68 1397.69 1103.63 1397.69 1106.04C1397.69 1108.66 1396.99 1110.73 1395.61 1112.25C1394.22 1113.78 1392.36 1114.54 1390.03 1114.54ZM1390.16 1099.65C1388.48 1099.65 1387.11 1100.25 1386.05 1101.47C1385 1102.69 1384.48 1104.28 1384.48 1106.26C1384.48 1108.24 1384.99 1109.84 1386.01 1111.04C1387.04 1112.25 1388.38 1112.85 1390.03 1112.85C1391.79 1112.85 1393.18 1112.27 1394.2 1111.12C1395.21 1109.97 1395.72 1108.36 1395.72 1106.3C1395.72 1104.18 1395.23 1102.54 1394.24 1101.38C1393.25 1100.22 1391.9 1099.65 1390.16 1099.65ZM1400.1 1113.62V1111.4C1400.35 1111.63 1400.65 1111.83 1401 1112.01C1401.36 1112.19 1401.74 1112.34 1402.12 1112.47C1402.52 1112.59 1402.91 1112.68 1403.31 1112.75C1403.71 1112.81 1404.07 1112.85 1404.41 1112.85C1405.56 1112.85 1406.43 1112.64 1406.99 1112.21C1407.57 1111.78 1407.86 1111.16 1407.86 1110.35C1407.86 1109.92 1407.76 1109.54 1407.57 1109.22C1407.38 1108.9 1407.12 1108.61 1406.78 1108.35C1406.45 1108.08 1406.05 1107.82 1405.58 1107.58C1405.13 1107.34 1404.64 1107.08 1404.11 1106.81C1403.55 1106.53 1403.02 1106.24 1402.54 1105.95C1402.05 1105.66 1401.63 1105.34 1401.27 1104.99C1400.91 1104.64 1400.63 1104.24 1400.42 1103.8C1400.22 1103.35 1400.12 1102.83 1400.12 1102.23C1400.12 1101.5 1400.28 1100.87 1400.6 1100.33C1400.92 1099.78 1401.34 1099.34 1401.87 1098.98C1402.39 1098.63 1402.98 1098.37 1403.65 1098.2C1404.32 1098.03 1405 1097.94 1405.7 1097.94C1407.28 1097.94 1408.43 1098.13 1409.16 1098.51V1100.63C1408.21 1099.97 1406.99 1099.65 1405.51 1099.65C1405.09 1099.65 1404.68 1099.69 1404.27 1099.78C1403.86 1099.86 1403.5 1100 1403.18 1100.19C1402.86 1100.39 1402.59 1100.64 1402.39 1100.94C1402.19 1101.25 1402.09 1101.62 1402.09 1102.06C1402.09 1102.47 1402.16 1102.83 1402.31 1103.13C1402.47 1103.43 1402.7 1103.7 1403 1103.95C1403.3 1104.19 1403.66 1104.43 1404.08 1104.66C1404.52 1104.89 1405.01 1105.15 1405.57 1105.42C1406.15 1105.71 1406.69 1106.01 1407.21 1106.32C1407.72 1106.63 1408.17 1106.98 1408.56 1107.36C1408.95 1107.74 1409.26 1108.16 1409.48 1108.63C1409.71 1109.09 1409.83 1109.62 1409.83 1110.22C1409.83 1111.01 1409.67 1111.68 1409.36 1112.23C1409.05 1112.78 1408.63 1113.22 1408.1 1113.56C1407.58 1113.91 1406.98 1114.15 1406.29 1114.3C1405.6 1114.46 1404.88 1114.54 1404.12 1114.54C1403.86 1114.54 1403.55 1114.52 1403.18 1114.47C1402.8 1114.43 1402.42 1114.37 1402.03 1114.29C1401.65 1114.22 1401.28 1114.12 1400.93 1114.01C1400.58 1113.89 1400.31 1113.76 1400.1 1113.62ZM1422.53 1099.91H1417.89V1114.27H1416.01V1099.91H1411.38V1098.21H1422.53V1099.91ZM1433.57 1114.27H1425.06V1098.21H1433.21V1099.91H1426.94V1105.26H1432.74V1106.95H1426.94V1112.57H1433.57V1114.27ZM1432.64 1114.27C1431.52 1115.32 1430.96 1116.16 1430.96 1116.77C1430.96 1117.29 1431.21 1117.55 1431.72 1117.55C1431.94 1117.55 1432.15 1117.5 1432.35 1117.41V1118.6C1432.12 1118.7 1431.82 1118.75 1431.43 1118.75C1430.86 1118.75 1430.41 1118.6 1430.06 1118.3C1429.72 1118 1429.55 1117.59 1429.55 1117.07C1429.55 1116.16 1430.13 1115.23 1431.31 1114.27H1432.64ZM1438.54 1108.2V1114.27H1436.66V1098.21H1441.07C1442.79 1098.21 1444.12 1098.63 1445.06 1099.47C1446.01 1100.3 1446.48 1101.48 1446.48 1103C1446.48 1104.53 1445.95 1105.77 1444.9 1106.74C1443.86 1107.72 1442.44 1108.2 1440.66 1108.2H1438.54ZM1438.54 1099.91V1106.5H1440.51C1441.81 1106.5 1442.8 1106.2 1443.48 1105.61C1444.16 1105.02 1444.51 1104.18 1444.51 1103.09C1444.51 1100.97 1443.25 1099.91 1440.75 1099.91H1438.54ZM1462.46 1114.27H1460.15L1451.89 1101.47C1451.68 1101.15 1451.51 1100.81 1451.37 1100.46H1451.31C1451.37 1100.81 1451.4 1101.54 1451.4 1102.67V1114.27H1449.51V1098.21H1451.96L1460 1110.81C1460.33 1111.33 1460.55 1111.69 1460.64 1111.88H1460.69C1460.62 1111.42 1460.58 1110.63 1460.58 1109.52V1098.21H1462.46V1114.27ZM1479.1 1114.27H1477.02L1475.31 1109.77H1468.51L1466.9 1114.27H1464.81L1470.97 1098.21H1472.92L1479.1 1114.27ZM1474.7 1108.08L1472.18 1101.24C1472.1 1101.01 1472.01 1100.65 1471.93 1100.16H1471.89C1471.81 1100.62 1471.73 1100.97 1471.63 1101.24L1469.13 1108.08H1474.7Z" fill="#11330B"/>
<path d="M1331.78 995.39H1609.93" stroke="#38813B" stroke-miterlimit="10"/>
<path d="M1609.6 1013.61H1562.47V1030.13H1609.6V1013.61Z" fill="#85C831"/>
<path d="M1609.6 1054.45H1562.47V1070.97H1609.6V1054.45Z" fill="#FFBF00"/>
<path d="M1609.6 1095.3H1562.47V1111.82H1609.6V1095.3Z" fill="#FF4C20"/>
<path data-id="t9" class="plot-area" d="M1527.91 434.46L1505.76 520.43L1451.69 583.36L1386.29 642.91L1168.68 677.16L1118.32 511.25L1455.91 306.86L1512.85 362.67L1527.91 434.46Z" fill="#85C831"/>
<path d="M1326.42 496.818C1328.97 496.818 1331.4 497.235 1333.72 498.068C1336.04 498.886 1338.11 500.197 1339.92 502C1341.74 503.788 1343.17 506.144 1344.22 509.068C1345.26 511.992 1345.79 515.561 1345.79 519.773C1345.8 523.652 1345.35 527.129 1344.42 530.205C1343.5 533.265 1342.17 535.871 1340.45 538.023C1338.73 540.174 1336.67 541.818 1334.26 542.955C1331.86 544.076 1329.17 544.636 1326.2 544.636C1322.92 544.636 1320.04 544.008 1317.54 542.75C1315.05 541.477 1313.06 539.765 1311.56 537.614C1310.07 535.462 1309.19 533.053 1308.9 530.386H1319.97C1320.32 531.932 1321.05 533.098 1322.17 533.886C1323.29 534.659 1324.64 535.045 1326.2 535.045C1329.04 535.045 1331.17 533.811 1332.58 531.341C1333.99 528.871 1334.7 525.515 1334.7 521.273H1334.42C1333.77 522.667 1332.85 523.864 1331.65 524.864C1330.47 525.864 1329.1 526.629 1327.54 527.159C1325.98 527.689 1324.33 527.955 1322.61 527.955C1319.82 527.955 1317.36 527.318 1315.22 526.045C1313.1 524.773 1311.43 523.023 1310.22 520.795C1309.02 518.568 1308.42 516.023 1308.4 513.159C1308.39 509.947 1309.14 507.114 1310.65 504.659C1312.17 502.189 1314.28 500.265 1316.99 498.886C1319.7 497.492 1322.85 496.803 1326.42 496.818ZM1326.49 505.455C1325.1 505.455 1323.86 505.78 1322.76 506.432C1321.69 507.083 1320.84 507.962 1320.22 509.068C1319.6 510.174 1319.29 511.417 1319.31 512.795C1319.32 514.174 1319.64 515.417 1320.24 516.523C1320.86 517.629 1321.7 518.508 1322.76 519.159C1323.84 519.811 1325.07 520.136 1326.45 520.136C1327.48 520.136 1328.43 519.947 1329.31 519.568C1330.19 519.189 1330.95 518.667 1331.61 518C1332.26 517.318 1332.76 516.53 1333.13 515.636C1333.51 514.742 1333.69 513.788 1333.67 512.773C1333.66 511.424 1333.34 510.197 1332.72 509.091C1332.1 507.985 1331.24 507.106 1330.15 506.455C1329.07 505.788 1327.86 505.455 1326.49 505.455Z" fill="#38753B"/>
<path data-id="t8" class="plot-area" d="M1453.45 304.42L1117.32 507.97L1067.55 344.02L1167.77 270.79L1278.08 226.66L1280.08 225.88L1281.36 226.36C1294.34 231.2 1403.49 272.26 1453.45 304.42Z" fill="#85C831"/>
<path d="M1253.99 363.636C1250.37 363.636 1247.13 363.061 1244.28 361.909C1241.45 360.742 1239.22 359.167 1237.6 357.182C1236 355.182 1235.19 352.924 1235.19 350.409C1235.19 348.485 1235.66 346.72 1236.58 345.114C1237.5 343.508 1238.75 342.174 1240.33 341.114C1241.92 340.038 1243.69 339.348 1245.65 339.045V338.682C1243.09 338.212 1240.99 337.023 1239.35 335.114C1237.73 333.205 1236.92 330.97 1236.92 328.409C1236.92 325.985 1237.66 323.826 1239.12 321.932C1240.61 320.038 1242.63 318.545 1245.19 317.455C1247.77 316.364 1250.7 315.818 1253.99 315.818C1257.28 315.818 1260.2 316.364 1262.76 317.455C1265.34 318.545 1267.36 320.038 1268.83 321.932C1270.31 323.826 1271.06 325.985 1271.06 328.409C1271.06 330.985 1270.23 333.227 1268.58 335.136C1266.94 337.03 1264.86 338.212 1262.33 338.682V339.045C1264.27 339.348 1266.03 340.038 1267.6 341.114C1269.19 342.174 1270.45 343.508 1271.38 345.114C1272.31 346.72 1272.78 348.485 1272.78 350.409C1272.78 352.924 1271.97 355.182 1270.35 357.182C1268.73 359.167 1266.5 360.742 1263.67 361.909C1260.85 363.061 1257.63 363.636 1253.99 363.636ZM1253.99 355.659C1255.37 355.659 1256.58 355.402 1257.62 354.886C1258.67 354.356 1259.49 353.621 1260.08 352.682C1260.69 351.742 1260.99 350.682 1260.99 349.5C1260.99 348.288 1260.69 347.212 1260.08 346.273C1259.47 345.333 1258.64 344.598 1257.58 344.068C1256.53 343.523 1255.34 343.25 1253.99 343.25C1252.66 343.25 1251.46 343.523 1250.4 344.068C1249.34 344.598 1248.5 345.333 1247.9 346.273C1247.29 347.212 1246.99 348.288 1246.99 349.5C1246.99 350.682 1247.28 351.742 1247.88 352.682C1248.48 353.606 1249.31 354.333 1250.35 354.864C1251.41 355.394 1252.63 355.659 1253.99 355.659ZM1253.99 335.318C1255.17 335.318 1256.22 335.076 1257.12 334.591C1258.05 334.106 1258.77 333.432 1259.28 332.568C1259.81 331.705 1260.08 330.727 1260.08 329.636C1260.08 328.545 1259.81 327.583 1259.28 326.75C1258.77 325.917 1258.06 325.265 1257.15 324.795C1256.24 324.311 1255.19 324.068 1253.99 324.068C1252.81 324.068 1251.75 324.311 1250.83 324.795C1249.91 325.265 1249.19 325.917 1248.67 326.75C1248.16 327.583 1247.9 328.545 1247.9 329.636C1247.9 330.727 1248.16 331.705 1248.67 332.568C1249.2 333.417 1249.93 334.091 1250.85 334.591C1251.78 335.076 1252.82 335.318 1253.99 335.318Z" fill="#38753B"/>
<path data-id="t7" class="plot-area" d="M1381.83 646.98L1352.42 673.76L1119.61 964.77L1118.43 966.24L1115.79 966.37L1037.74 970.21L975.58 768.43L1176.51 708.74L1178.12 708.26L1169.65 680.37L1381.83 646.98Z" fill="#85C831"/>
<path opacity="0.7" d="M1118.13 844L1136.9 806.818V806.523H1114.95V797.455H1148.54V806.591L1129.7 844H1118.13Z" fill="#38753B"/>
<path data-id="t6" class="plot-area" d="M1173.97 706.02L974.61 765.26L917.32 579.28L1117.83 521.11L1173.97 706.02Z" fill="#85C831"/>
<path d="M1050.56 669.636C1048.01 669.636 1045.57 669.227 1043.24 668.409C1040.91 667.576 1038.83 666.258 1037.01 664.455C1035.2 662.636 1033.76 660.258 1032.72 657.318C1031.67 654.364 1031.16 650.765 1031.17 646.523C1031.19 642.689 1031.66 639.25 1032.58 636.205C1033.51 633.144 1034.82 630.545 1036.54 628.409C1038.26 626.273 1040.32 624.644 1042.72 623.523C1045.13 622.386 1047.82 621.818 1050.79 621.818C1054.04 621.818 1056.92 622.455 1059.4 623.727C1061.9 624.985 1063.9 626.682 1065.4 628.818C1066.9 630.939 1067.79 633.303 1068.06 635.909H1056.99C1056.66 634.439 1055.92 633.326 1054.79 632.568C1053.67 631.795 1052.33 631.409 1050.79 631.409C1047.94 631.409 1045.81 632.644 1044.4 635.114C1043.01 637.583 1042.29 640.886 1042.26 645.023H1042.56C1043.2 643.629 1044.11 642.432 1045.31 641.432C1046.51 640.432 1047.88 639.667 1049.42 639.136C1050.98 638.591 1052.64 638.318 1054.38 638.318C1057.17 638.318 1059.63 638.962 1061.76 640.25C1063.9 641.538 1065.57 643.303 1066.79 645.545C1068 647.773 1068.6 650.326 1068.58 653.205C1068.6 656.447 1067.84 659.311 1066.31 661.795C1064.78 664.265 1062.66 666.189 1059.95 667.568C1057.25 668.947 1054.12 669.636 1050.56 669.636ZM1050.49 661C1051.87 661 1053.11 660.674 1054.2 660.023C1055.29 659.371 1056.14 658.485 1056.76 657.364C1057.39 656.242 1057.69 654.977 1057.67 653.568C1057.69 652.144 1057.39 650.879 1056.76 649.773C1056.16 648.667 1055.31 647.788 1054.22 647.136C1053.14 646.485 1051.91 646.159 1050.51 646.159C1049.5 646.159 1048.55 646.348 1047.67 646.727C1046.79 647.106 1046.03 647.636 1045.38 648.318C1044.74 648.985 1044.24 649.773 1043.88 650.682C1043.51 651.576 1043.32 652.545 1043.31 653.591C1043.32 654.97 1043.64 656.22 1044.26 657.341C1044.89 658.462 1045.73 659.356 1046.81 660.023C1047.89 660.674 1049.11 661 1050.49 661Z" fill="#38753B"/>
<path data-id="t5" class="plot-area" d="M1116.87 517.94L881.97 586.08L821.4 387.08H1010.08L1064.7 346.08L1116.87 517.94Z" fill="#85C831"/>
<path d="M973.219 490.636C969.825 490.636 966.81 490.023 964.173 488.795C961.537 487.568 959.454 485.879 957.923 483.727C956.408 481.576 955.62 479.106 955.56 476.318H966.469C966.56 478.03 967.257 479.409 968.56 480.455C969.863 481.485 971.416 482 973.219 482C974.628 482 975.878 481.689 976.969 481.068C978.06 480.447 978.916 479.576 979.537 478.455C980.158 477.318 980.461 476.015 980.446 474.545C980.461 473.045 980.151 471.735 979.514 470.614C978.893 469.492 978.029 468.621 976.923 468C975.832 467.364 974.575 467.045 973.151 467.045C971.802 467.03 970.522 467.326 969.31 467.932C968.113 468.538 967.204 469.364 966.582 470.409L956.651 468.545L958.673 443.455H988.537V452.523H967.923L966.855 463.5H967.128C967.901 462.212 969.143 461.152 970.855 460.318C972.582 459.47 974.545 459.045 976.741 459.045C979.529 459.045 982.014 459.697 984.196 461C986.393 462.288 988.12 464.076 989.378 466.364C990.651 468.652 991.287 471.273 991.287 474.227C991.287 477.424 990.529 480.258 989.014 482.727C987.514 485.197 985.408 487.136 982.696 488.545C979.999 489.939 976.84 490.636 973.219 490.636Z" fill="#38753B"/>
<path data-id="t4" class="plot-area" d="M974.68 902.12L953.57 931.83L724.7 944.98L716.85 797.3V797.29L932.08 762.2L974.68 902.12Z" fill="#85C831"/>
<path d="M813.801 872.273V863.5L832.869 833.455H840.665V845.364H836.142L824.983 863.045V863.409H852.597V872.273H813.801ZM836.278 880V869.591L836.506 865.75V833.455H847.028V880H836.278Z" fill="#38753B"/>
<path data-id="t3" class="plot-area" d="M931.1 759L686.58 798.86L676.47 649.14L879.71 590.18L931.1 759Z" fill="#85C831"/>
<path d="M791.793 720.636C788.247 720.636 785.103 720.03 782.361 718.818C779.634 717.591 777.482 715.902 775.906 713.75C774.33 711.598 773.527 709.121 773.497 706.318H784.815C784.861 707.333 785.187 708.235 785.793 709.023C786.399 709.795 787.224 710.402 788.27 710.841C789.315 711.28 790.505 711.5 791.838 711.5C793.171 711.5 794.346 711.265 795.361 710.795C796.391 710.311 797.194 709.652 797.77 708.818C798.346 707.97 798.626 707 798.611 705.909C798.626 704.818 798.315 703.848 797.679 703C797.043 702.152 796.141 701.492 794.974 701.023C793.823 700.553 792.459 700.318 790.884 700.318H786.361V692.318H790.884C792.262 692.318 793.474 692.091 794.52 691.636C795.58 691.182 796.406 690.545 796.997 689.727C797.588 688.894 797.876 687.939 797.861 686.864C797.876 685.818 797.626 684.902 797.111 684.114C796.611 683.311 795.906 682.689 794.997 682.25C794.103 681.811 793.065 681.591 791.884 681.591C790.641 681.591 789.512 681.811 788.497 682.25C787.497 682.689 786.702 683.311 786.111 684.114C785.52 684.917 785.209 685.848 785.179 686.909H774.429C774.459 684.136 775.232 681.697 776.747 679.591C778.262 677.47 780.323 675.811 782.929 674.614C785.55 673.417 788.535 672.818 791.884 672.818C795.217 672.818 798.149 673.402 800.679 674.568C803.209 675.735 805.179 677.326 806.588 679.341C807.997 681.341 808.702 683.606 808.702 686.136C808.717 688.758 807.861 690.917 806.134 692.614C804.421 694.311 802.217 695.356 799.52 695.75V696.114C803.126 696.538 805.846 697.705 807.679 699.614C809.527 701.523 810.444 703.909 810.429 706.773C810.429 709.47 809.634 711.864 808.043 713.955C806.467 716.03 804.27 717.667 801.452 718.864C798.649 720.045 795.429 720.636 791.793 720.636Z" fill="#38753B"/>
<path data-id="t2" class="plot-area" d="M691.26 917.33L614.61 951.86C577.32 912.86 522.99 855.75 513.07 843.93L487.66 779.52C487.66 779.52 484.07 740.8 481.06 705.82L673.2 650.08L691.26 917.33Z" fill="#85C831"/>
<path d="M576.026 800V791.909L593.003 777.045C594.276 775.894 595.359 774.841 596.253 773.886C597.147 772.917 597.829 771.947 598.298 770.977C598.768 769.992 599.003 768.924 599.003 767.773C599.003 766.485 598.723 765.386 598.162 764.477C597.601 763.553 596.829 762.841 595.844 762.341C594.859 761.841 593.73 761.591 592.457 761.591C591.17 761.591 590.041 761.856 589.071 762.386C588.101 762.902 587.344 763.652 586.798 764.636C586.268 765.621 586.003 766.818 586.003 768.227H575.344C575.344 765.061 576.056 762.326 577.48 760.023C578.904 757.72 580.904 755.947 583.48 754.705C586.071 753.447 589.079 752.818 592.503 752.818C596.033 752.818 599.101 753.409 601.707 754.591C604.313 755.773 606.329 757.424 607.753 759.545C609.192 761.652 609.912 764.098 609.912 766.886C609.912 768.659 609.556 770.417 608.844 772.159C608.132 773.902 606.851 775.826 605.003 777.932C603.17 780.038 600.563 782.561 597.185 785.5L591.616 790.636V790.932H610.48V800H576.026Z" fill="#38753B"/>
<path data-id="t1" class="plot-area" d="M878.74 587.01L877.07 587.49L480.77 702.42L476.47 703.67C474.54 680.93 472.97 660.93 472.97 655.94C472.97 642.94 465.29 455.04 465.29 455.04L445.2 341.04H445.39L446.49 341.31L636.64 387.12H817.89L858.28 519.79L878.74 587.01Z" fill="#85C831"/>
<path d="M680.048 497.455V544H668.821V507.955H668.548L658.139 514.318V504.591L669.616 497.455H680.048Z" fill="#38753B"/>
<path d="M534.81 567.42L487.73 451.22L540.64 426.77L590.44 542.42L534.81 567.42ZM491.14 452.57L536.24 563.85L586.97 541.03L539.28 430.33L491.14 452.57Z" fill="#38813B"/>
</g>
</svg>
